#!OML:ASF X:\für Bonn\!DataBase\2005_08_12_Daniel\c3d\Daniel.ASF
:FULLY-SPECIFIED
:DEGREES
31
root -29.8889 16.6801 -26.2472 -7.32572 46.2063 -714.814
lowerback 42.6435 -1.84108 2.08026
upperback 12.1706 -0.747525 -2.72602
thorax -6.66249 0.177682 -3.72103
lowerneck -2.10674 0.584502 -4.35856
upperneck -4.42461 0.764969 -3.76447
head -1.00767 0.513209 -0.439125
rclavicle -4.62174e-015 4.3832e-014
rhumerus -27.2231 0.667841 -91.2123
rradius 37.7303
rwrist 1.0058
rhand -26.3925 23.2254
rfingers 7.12502
rthumb 0.166662 -6.7543
lclavicle -4.62174e-015 4.3832e-014
lhumerus -13.9469 19.4619 85.9381
lradius 31.868
lwrist -19.1737
lhand -12.7774 -11.0165
lfingers 7.12502
lthumb 13.3078 18.5386
rfemur -6.8047 10.513 22.8208
rtibia 55.7185
rfoot -27.583 7.91089
rtoes -6.87179
lfemur -31.9574 -6.41701 -18.3038
ltibia 41.2077
lfoot -18.6262 -1.29864
ltoes -15.0642
32
root -29.8267 16.6613 -26.2022 -7.67479 46.2252 -714.95
lowerback 42.6496 -1.80443 2.08784
upperback 12.2505 -0.695068 -2.76272
thorax -6.57261 0.209651 -3.78495
lowerneck -2.14909 0.535113 -4.45917
upperneck -4.39769 0.708226 -3.60777
head -0.99293 0.483232 -0.374282
rclavicle -6.55989e-015 -6.16232e-015
rhumerus -27.3472 1.05076 -91.3187
rradius 38.6257
rwrist 0.90013
rhand -26.4447 23.3278
rfingers 7.12502
rthumb 0.116204 -6.65192
lclavicle -6.55989e-015 -6.16232e-015
lhumerus -14.1243 19.6839 85.6821
lradius 31.9609
lwrist -19.1871
lhand -12.8065 -10.9701
lfingers 7.12502
lthumb 13.2797 18.5868
rfemur -6.42357 10.2554 22.8957
rtibia 56.0013
rfoot -27.4813 8.16128
rtoes -6.6399
lfemur -31.8698 -6.85481 -18.0273
ltibia 40.3087
lfoot -18.7642 -1.17267
ltoes -15.2661
33
root -29.7626 16.6401 -26.1565 -7.97583 46.2319 -715.054
lowerback 42.6263 -1.75716 2.08499
upperback 12.3288 -0.635747 -2.80279
thorax -6.47559 0.244501 -3.84976
lowerneck -2.08546 0.48329 -4.46912
upperneck -4.4645 0.63419 -3.53471
head -1.02438 0.448099 -0.350573
rclavicle -7.45443e-016 1.34677e-014
rhumerus -27.4293 1.43941 -91.4175
rradius 39.474
rwrist 0.788589
rhand -26.474 23.482
rfingers 7.12502
rthumb 0.0879773 -6.49772
lclavicle -7.45443e-016 1.34677e-014
lhumerus -14.3068 19.8742 85.4491
lradius 32.066
lwrist -19.1638
lhand -12.8532 -10.8321
lfingers 7.12502
lthumb 13.2347 18.7278
rfemur -6.0664 10.0139 22.9354
rtibia 56.284
rfoot -27.3847 8.39616
rtoes -6.30808
lfemur -31.7831 -7.26765 -17.7743
ltibia 39.4278
lfoot -18.9182 -1.01589
ltoes -15.5772
34
root -29.6973 16.6166 -26.1104 -8.25409 46.2271 -715.137
lowerback 42.5922 -1.70968 2.06779
upperback 12.42 -0.582065 -2.85049
thorax -6.36166 0.277477 -3.9128
lowerneck -2.05848 0.445058 -4.49343
upperneck -4.50362 0.582569 -3.44189
head -1.04123 0.422907 -0.31824
rclavicle 5.91633e-014 -1.49089e-014
rhumerus -27.4864 1.92886 -91.5349
rradius 40.3557
rwrist 0.620557
rhand -26.4978 23.6058
rfingers 7.12502
rthumb 0.06499 -6.37397
lclavicle 5.91633e-014 -1.49089e-014
lhumerus -14.4959 20.0052 85.2245
lradius 32.2069
lwrist -19.0093
lhand -12.8778 -10.6257
lfingers 7.12502
lthumb 13.211 18.9357
rfemur -5.71694 9.78164 22.9556
rtibia 56.5658
rfoot -27.327 8.6415
rtoes -6.03146
lfemur -31.6854 -7.66415 -17.5362
ltibia 38.5863
lfoot -19.0607 -0.840405
ltoes -15.9343
